<svg xmlns="http://www.w3.org/2000/svg" xmlns:xlink="http://www.w3.org/1999/xlink" width="58.031" height="58.101" viewBox="0 0 58.031 58.101"><defs><clipPath id="a"><rect width="58.031" height="58.101" fill="none"/></clipPath></defs><g clip-path="url(#a)"><path d="M51,53s0-9,8-11C49,32,41,13,41,13S33,31,23,41c8,2,8,12,8,12" transform="translate(-0.969 -0.899)" fill="none" stroke="#231f20" stroke-linecap="round" stroke-linejoin="round" stroke-miterlimit="10" stroke-width="2"/><line y1="24" transform="translate(40.031 12.101)" stroke-width="2" stroke="#231f20" stroke-linecap="round" stroke-linejoin="round" stroke-miterlimit="10" fill="none"/><rect width="5.7" height="5.7" transform="translate(40.031 8.061) rotate(-135)" stroke-width="2" stroke="#231f20" stroke-linecap="round" stroke-linejoin="round" stroke-miterlimit="10" fill="none"/><circle cx="2" cy="2" r="2" transform="translate(0.031 2.101)" fill="none" stroke="#231f20" stroke-linecap="round" stroke-linejoin="round" stroke-miterlimit="10" stroke-width="2"/><line x1="32" transform="translate(4.031 4.101)" stroke-width="2" stroke="#231f20" stroke-linecap="round" stroke-linejoin="round" stroke-miterlimit="10" fill="none"/><circle cx="4" cy="4" r="4" transform="translate(36.031 36.101)" fill="none" stroke="#231f20" stroke-linecap="round" stroke-linejoin="round" stroke-miterlimit="10" stroke-width="2"/><path d="M29,59V57H53v2" transform="translate(-0.969 -0.899)" fill="none" stroke="#231f20" stroke-linecap="round" stroke-linejoin="round" stroke-miterlimit="10" stroke-width="2"/><path d="M37,5A31.966,31.966,0,0,0,5,37" transform="translate(-0.969 -0.899)" fill="none" stroke="#231f20" stroke-linecap="round" stroke-linejoin="round" stroke-miterlimit="10" stroke-width="2"/><rect width="5.7" height="5.7" transform="translate(4.03 44.061) rotate(-135)" stroke-width="2" stroke="#231f20" stroke-linecap="round" stroke-linejoin="round" stroke-miterlimit="10" fill="none"/></g></svg>