<svg xmlns="http://www.w3.org/2000/svg" xmlns:xlink="http://www.w3.org/1999/xlink" width="58" height="58" viewBox="0 0 58 58"><defs><clipPath id="a"><rect width="58" height="58" fill="none"/></clipPath></defs><g clip-path="url(#a)"><path d="M39,49H3a2.006,2.006,0,0,1-2-2V41a2.006,2.006,0,0,1,2-2H51" transform="translate(-1 -1)" fill="none" stroke="#231f20" stroke-linecap="round" stroke-linejoin="round" stroke-miterlimit="10" stroke-width="2"/><path d="M3,53v4a2.006,2.006,0,0,0,2,2H55a2.006,2.006,0,0,0,2-2V50a.979.979,0,0,0-1-1H55V39h3a.979.979,0,0,0,1-1V31a2.006,2.006,0,0,0-2-2H9a2.006,2.006,0,0,0-2,2v4" transform="translate(-1 -1)" fill="none" stroke="#231f20" stroke-linecap="round" stroke-linejoin="round" stroke-miterlimit="10" stroke-width="2"/><path d="M42,15a6.018,6.018,0,0,0-6-6,6.3,6.3,0,0,0-3,1,6.3,6.3,0,0,0-3-1,6.018,6.018,0,0,0-6,6c0,6,2,8,2,8a5.367,5.367,0,0,0,4,2,5.428,5.428,0,0,0,3-1,5.428,5.428,0,0,0,3,1,5.034,5.034,0,0,0,4-2A15.389,15.389,0,0,0,42,15Z" transform="translate(-1 -1)" fill="none" stroke="#231f20" stroke-linecap="round" stroke-linejoin="round" stroke-miterlimit="10" stroke-width="2"/><path d="M35.6,5.4a3.662,3.662,0,0,0,3.5-.7,3.662,3.662,0,0,0,.7-3.5,3.662,3.662,0,0,0-3.5.7A3.662,3.662,0,0,0,35.6,5.4Z" transform="translate(-1 -1)" fill="none" stroke="#231f20" stroke-linecap="round" stroke-linejoin="round" stroke-miterlimit="10" stroke-width="2"/><line x2="3" y2="5" transform="translate(29)" stroke-width="2" stroke="#231f20" stroke-linecap="round" stroke-linejoin="round" stroke-miterlimit="10" fill="none"/><path d="M49,39" transform="translate(-1 -1)" fill="none" stroke="#231f20" stroke-linecap="round" stroke-linejoin="round" stroke-miterlimit="10" stroke-width="2"/><path d="M43,39V55l3-2,3,2V39" transform="translate(-1 -1)" fill="none" stroke="#231f20" stroke-linecap="round" stroke-linejoin="round" stroke-miterlimit="10" stroke-width="2"/><line x2="2" transform="translate(52 48)" stroke-width="2" stroke="#231f20" stroke-linecap="round" stroke-linejoin="round" stroke-miterlimit="10" fill="none"/><line y2="10" transform="translate(10 38)" stroke-width="2" stroke="#231f20" stroke-linecap="round" stroke-linejoin="round" stroke-miterlimit="10" fill="none"/><line y2="10" transform="translate(26 38)" stroke-width="2" stroke="#231f20" stroke-linecap="round" stroke-linejoin="round" stroke-miterlimit="10" fill="none"/><line y2="6" transform="translate(14 52)" stroke-width="2" stroke="#231f20" stroke-linecap="round" stroke-linejoin="round" stroke-miterlimit="10" fill="none"/><line y2="6" transform="translate(22 52)" stroke-width="2" stroke="#231f20" stroke-linecap="round" stroke-linejoin="round" stroke-miterlimit="10" fill="none"/><line y2="6" transform="translate(18 52)" stroke-width="2" stroke="#231f20" stroke-linecap="round" stroke-linejoin="round" stroke-miterlimit="10" fill="none"/><line y2="6" transform="translate(12 28)" stroke-width="2" stroke="#231f20" stroke-linecap="round" stroke-linejoin="round" stroke-miterlimit="10" fill="none"/><line y2="6" transform="translate(52 28)" stroke-width="2" stroke="#231f20" stroke-linecap="round" stroke-linejoin="round" stroke-miterlimit="10" fill="none"/><line y2="6" transform="translate(40 28)" stroke-width="2" stroke="#231f20" stroke-linecap="round" stroke-linejoin="round" stroke-miterlimit="10" fill="none"/><line y2="2" transform="translate(16 42)" stroke-width="2" stroke="#231f20" stroke-linecap="round" stroke-linejoin="round" stroke-miterlimit="10" fill="none"/><line y2="2" transform="translate(20 42)" stroke-width="2" stroke="#231f20" stroke-linecap="round" stroke-linejoin="round" stroke-miterlimit="10" fill="none"/></g></svg>