<svg xmlns="http://www.w3.org/2000/svg" width="52.148" height="64" viewBox="0 0 52.148 64"><path d="M46.222,8.3H37.807a3,3,0,0,0-2.844-2.37A2.43,2.43,0,0,1,33.422,4.5L32.83,2.963A5.1,5.1,0,0,0,28.444,0H24.889A5.1,5.1,0,0,0,20.5,2.963L19.911,4.5A2.43,2.43,0,0,1,18.37,5.926,3.265,3.265,0,0,0,15.526,8.3h-9.6A5.868,5.868,0,0,0,0,14.222V58.074A5.868,5.868,0,0,0,5.926,64h40.3a5.868,5.868,0,0,0,5.926-5.926V14.222A5.868,5.868,0,0,0,46.222,8.3ZM17.778,9.481c0-.711.356-1.185.593-1.185a4.731,4.731,0,0,0,3.793-2.963l.593-1.541A2.552,2.552,0,0,1,24.889,2.37h3.556a2.552,2.552,0,0,1,2.133,1.422l.593,1.541c.119.237.119.356.237.593H29.63a1.12,1.12,0,0,0-1.185,1.185A1.12,1.12,0,0,0,29.63,8.3h5.333c.237,0,.593.474.593,1.185v1.185a1.12,1.12,0,0,1-1.185,1.185H18.963a1.12,1.12,0,0,1-1.185-1.185Zm32,48.593a3.492,3.492,0,0,1-3.556,3.556H5.926A3.492,3.492,0,0,1,2.37,58.074V14.222a3.492,3.492,0,0,1,3.556-3.556h9.481a3.492,3.492,0,0,0,3.556,3.556H34.37a3.492,3.492,0,0,0,3.556-3.556h8.3a3.492,3.492,0,0,1,3.556,3.556Z" fill="#fff"/></svg>